<svg width="35" height="35" viewBox="0 0 35 35" fill="none" xmlns="http://www.w3.org/2000/svg">
<path d="M25.5085 4.85226L28.4607 1.89826C29.0762 1.28282 29.9109 0.937073 30.7812 0.937073C31.6516 0.937073 32.4863 1.28282 33.1018 1.89826C33.7172 2.51369 34.0629 3.3484 34.0629 4.21876C34.0629 5.08911 33.7172 5.92382 33.1018 6.53926L14.5185 25.1225C13.5933 26.0471 12.4524 26.7268 11.1988 27.1L6.5 28.5L7.9 23.8013C8.27324 22.5476 8.95286 21.4067 9.8775 20.4815L25.5085 4.85226ZM25.5085 4.85226L30.125 9.46876M27.5 21.5V29.8125C27.5 30.8568 27.0852 31.8583 26.3467 32.5967C25.6083 33.3352 24.6068 33.75 23.5625 33.75H5.1875C4.14321 33.75 3.14169 33.3352 2.40327 32.5967C1.66484 31.8583 1.25 30.8568 1.25 29.8125V11.4375C1.25 10.3932 1.66484 9.3917 2.40327 8.65327C3.14169 7.91485 4.14321 7.50001 5.1875 7.50001H13.5" stroke="white" stroke-width="1.5" stroke-linecap="round" stroke-linejoin="round"/>
</svg>
